<svg id="Layer_1" data-name="Layer 1" xmlns="http://www.w3.org/2000/svg" viewBox="0 0 512 512"><title>IconsCommunity_Group_Discussion_512</title><path d="M92.45,192.6V299.15a16,16,0,0,0,9.76,14.74L240,372.17a15.92,15.92,0,0,0,6.23,1.27,15.4,15.4,0,0,0,2.35-.18,15.53,15.53,0,0,0,2.36.18,16,16,0,0,0,5.79-1.09L411.54,312.3a16,16,0,0,0,10.22-14.86l.34-97.1,13.39-4.74a16,16,0,0,0,6.89-25.39L349.71,60.11A16,16,0,0,0,333.36,55L178.69,96a16,16,0,0,0-9.62,3L79.62,164A16,16,0,0,0,92.45,192.6Zm32,96V171.09s0-.05,0-.07l50.29-36.52,55.48,78.81v120Zm265.35-2.13L262.21,335.9V254.42a16.39,16.39,0,0,0,3.43.38,15.85,15.85,0,0,0,5.34-.93l119.08-42.18ZM403,173.15,273.4,219.07l-68.25-96.95L331.76,88.48Z"/><path d="M469.21,276.54a16,16,0,0,0-22,23.24C458.37,310.35,464,321.16,464,331.9c0,20.72-22.93,45.83-59.84,65.52-42.64,22.74-98.5,35.79-153.27,35.79s-107-12.63-147-35.55c-34.08-19.55-54.43-44.13-54.43-65.76,0-10.74,5.66-21.55,16.83-32.12a16,16,0,0,0-22-23.24C26.79,293.15,17.51,312.3,17.51,331.9c0,33.73,25.7,67.82,70.51,93.51s102.59,39.8,162.9,39.8c59.85,0,121.2-14.42,168.33-39.56,48.8-26,76.78-60.2,76.78-93.75C496,312.3,486.76,293.15,469.21,276.54Z"/></svg>