<svg id="Layer_1" data-name="Layer 1" xmlns="http://www.w3.org/2000/svg" viewBox="0 0 512 512"><title>IconsDirect_Observation_512</title><path d="M166.92,310.06a44.87,44.87,0,1,0-44.87-44.87A44.92,44.92,0,0,0,166.92,310.06Zm0-57.74a12.87,12.87,0,1,1-12.87,12.87A12.89,12.89,0,0,1,166.92,252.32Z"/><path d="M397.38,265.19a44.87,44.87,0,1,0-44.87,44.87A44.92,44.92,0,0,0,397.38,265.19Zm-57.74,0a12.87,12.87,0,1,1,12.87,12.87A12.88,12.88,0,0,1,339.64,265.19Z"/><path d="M460.74,63.19a16,16,0,0,0-20.91-19.25l-116.6,42.4a199.73,199.73,0,0,0-127,0L79.59,43.94a16,16,0,0,0-20.9,19.25L88.62,172.94a198.25,198.25,0,0,0-24.8,64.61,106.35,106.35,0,0,0-3.64,27.64c0,1.46,0,2.91.1,4.35-.06,2-.1,4-.1,6,0,110,89.51,199.52,199.53,199.52s199.53-89.5,199.53-199.52c0-2,0-4-.1-6,.06-1.44.1-2.89.1-4.35a106.35,106.35,0,0,0-3.64-27.64,198.24,198.24,0,0,0-24.79-64.61Zm-39,21.38-15.25,55.92a201,201,0,0,0-42.38-35ZM95,245a74.72,74.72,0,1,1-2.66,24.35A168.27,168.27,0,0,1,95,245Zm164.74,72.85a107.34,107.34,0,0,0,17.8,23.18l-17.8,22.25-17.8-22.25A107,107,0,0,0,259.71,317.87Zm18.06-52.68A74.72,74.72,0,0,1,424.45,245a166.89,166.89,0,0,1,2.67,24.35,74.73,74.73,0,0,1-149.35-4.18Zm106.12-102A106.73,106.73,0,0,0,259.71,212.5a106.72,106.72,0,0,0-124.17-49.34,167.29,167.29,0,0,1,248.35,0ZM97.69,84.57l57.63,21a200.75,200.75,0,0,0-42.38,35ZM259.71,443a167.64,167.64,0,0,1-145.9-85.28A106.56,106.56,0,0,0,216,359.93l31.19,39a16,16,0,0,0,25,0l31.18-39a106.59,106.59,0,0,0,102.22-2.18A167.62,167.62,0,0,1,259.71,443Z"/></svg>