<svg id="Layer_1" data-name="Layer 1" xmlns="http://www.w3.org/2000/svg" viewBox="0 0 512 512"><title>IconsFocus_Group_Discussion_512</title><path d="M256.77,186.11c-15.38,0-30.18-6.8-41.68-19.14a72.83,72.83,0,0,1-19-44.49c-1.28-18.12,4.29-34.83,15.68-47.07s27.29-18.83,45-18.83,33.54,6.73,44.9,18.94,17.06,29,15.77,47h0a73,73,0,0,1-19,44.46C287,179.31,272.15,186.11,256.77,186.11Zm0-97.53c-8.71,0-16.37,3.07-21.56,8.65-5.36,5.74-7.84,13.69-7.18,23,1.44,20.27,16,33.89,28.74,33.89s27.29-13.62,28.75-33.91h0c.65-9-1.93-17.14-7.27-22.88S265.38,88.58,256.77,88.58Z"/><path d="M346,458.1c-.31,0-.63,0-.95,0a16,16,0,0,1-15-16.92l.15-2.66c7.52-127.52,8.08-152.82,8-157.79-10-37.8-50-51.25-81.39-51.25s-71.21,13.47-81.38,51.3c-.25,14.08,7.18,119.34,12.7,158.16a16,16,0,0,1-31.68,4.5c-3.8-26.71-7.93-79.75-9.11-95.37-5-66.78-3.89-71.37-3.27-73.84,6-24.22,20.95-44.3,43.14-58,19.46-12.06,44.18-18.7,69.6-18.7,57.07,0,101.33,30.15,112.77,76.82.9,3.64,1.92,7.78-7.41,166.1L362,443A16,16,0,0,1,346,458.1Zm-7.55-176.2h0Zm-163-1.94Zm162.71,0Z"/><path d="M115.7,188.82c-26.48,0-49.75-24.31-51.86-54.19-1.09-15.4,3.71-29.68,13.52-40.2s23.33-16.17,38.34-16.17A51.56,51.56,0,0,1,154,94.52c9.86,10.59,14.68,24.84,13.58,40.13C165.4,164.52,142.14,188.82,115.7,188.82Zm0-78.56c-6,0-11.33,2.12-14.93,6-3.74,4-5.47,9.59-5,16.13,1,14.41,11.32,24.45,19.94,24.45s18.9-10,19.93-24.47h0c.46-6.32-1.35-12-5.09-16A19.92,19.92,0,0,0,115.7,110.26Z"/><path d="M58.3,409.54a16,16,0,0,1-15.77-13.41c-.06-.33-5.42-33-10.58-65.85C21,260.78,21.5,258.92,22.51,254.83c5-20.21,17.45-36.92,35.91-48.35,16-9.94,36.39-15.42,57.28-15.42,17.85,0,33.1,3,46.62,9.21A16,16,0,0,1,149,229.36c-9.25-4.24-20.14-6.3-33.29-6.3-23.57,0-53.47,9.88-61.6,37.51,1.14,12.45,10.91,75,20,130.37a16,16,0,0,1-13.19,18.38A15.5,15.5,0,0,1,58.3,409.54Z"/><path d="M396.3,188.82c-26.44,0-49.7-24.3-51.85-54.17-1.1-15.29,3.72-29.54,13.58-40.13A51.56,51.56,0,0,1,396.3,78.26c15,0,28.63,5.74,38.34,16.17s14.61,24.8,13.52,40.2C446.05,164.51,422.78,188.82,396.3,188.82Zm0-78.56a19.92,19.92,0,0,0-14.84,6c-3.74,4-5.55,9.72-5.09,16,1,14.42,11.34,24.47,19.93,24.47s18.92-10,19.94-24.45c.46-6.54-1.27-12.11-5-16.13C407.63,112.38,402.33,110.26,396.3,110.26Z"/><path d="M453.7,409.54a15.5,15.5,0,0,1-2.61-.22,16,16,0,0,1-13.19-18.38c9.09-55.42,18.86-117.93,20-130.37-8.12-27.63-38-37.51-61.6-37.51-13.15,0-24,2.06-33.29,6.3a16,16,0,1,1-13.33-29.09c13.52-6.2,28.77-9.21,46.62-9.21,20.89,0,41.23,5.48,57.28,15.42,18.46,11.43,30.87,28.14,35.9,48.32,1,4.12,1.48,6-9.43,75.48-5.16,32.82-10.52,65.52-10.58,65.85A16,16,0,0,1,453.7,409.54Z"/></svg>