<svg id="Layer_1" data-name="Layer 1" xmlns="http://www.w3.org/2000/svg" viewBox="0 0 512 512"><title>IconsHousehold_Interviews_512</title><path d="M189,384.84a16.46,16.46,0,0,0,2-.13,16.35,16.35,0,0,0,2,.13,15.91,15.91,0,0,0,5.78-1.09l130.37-50.56a16,16,0,0,0,10.21-14.86l.28-80,9.6-3.4a16,16,0,0,0,6.89-25.39l-78-92.7a16,16,0,0,0-16.34-5.16l-129.9,34.51a15.89,15.89,0,0,0-9.26,3L47.25,204A16,16,0,0,0,57,232.88v86.88a16,16,0,0,0,9.76,14.74l116,49.07A15.92,15.92,0,0,0,189,384.84Zm118.37-77.53L205,347V284.93l.36,0a15.85,15.85,0,0,0,5.34-.93l96.87-34.31Zm9.38-94.8-103.9,36.8-54.26-77.09,101.54-27ZM89,309.16v-96l39.22-28.48L173,248.29V344.7Z"/><path d="M426.89,21.75h-214c-35.29,0-64,30.33-64,67.61V111a16,16,0,0,0,32,0V89.36c0-19.63,14.35-35.61,32-35.61h214c17.64,0,32,16,32,35.61V335.64h-83c-26.47,0-48,22.61-48,50.4v83h-115c-17.65,0-32-16-32-35.61V411a16,16,0,0,0-32,0v22.39c0,37.28,28.71,67.61,64,67.61H337.67a47.13,47.13,0,0,0,33.93-14.75l104.88-98.64c.26-.24.51-.5.75-.76a51.44,51.44,0,0,0,13.66-35.21V89.36C490.89,52.08,462.18,21.75,426.89,21.75Zm-67,431.61V386c0-10.15,7.18-18.4,16-18.4H451Z"/></svg>