<svg id="Layer_1" data-name="Layer 1" xmlns="http://www.w3.org/2000/svg" viewBox="0 0 512 512"><title>IconsIndividual_Interviews_512</title><path d="M267.64,364.83a25.89,25.89,0,0,0,4.58-22c-10.32-42.1-47-71-95.65-76.9A61.61,61.61,0,0,0,199.83,250a74.08,74.08,0,0,0,19.27-45.13h0c1.32-18.24-4.36-35.16-16-47.65S175.42,138,157.58,138s-34.15,6.78-45.62,19.1-17.21,29.36-15.91,47.74A73.93,73.93,0,0,0,115.32,250a61.54,61.54,0,0,0,23.4,15.94c-19,2.45-37,8.56-51.93,17.81-22.54,14-37.7,34.37-43.83,59a25.86,25.86,0,0,0,4.53,22.06,24,24,0,0,0,19.08,9.27h182A24.06,24.06,0,0,0,267.64,364.83ZM135.37,178.91c5.35-5.75,13.24-8.91,22.21-8.91s16.71,3.2,22.11,9,8.17,14.28,7.5,23.56h0c-1.51,20.85-16.52,34.86-29.61,34.86s-28.13-14-29.61-34.84C127.3,193,129.85,184.83,135.37,178.91ZM76.71,342.06C90,308.8,127.6,296.73,157.58,296.73s67.79,12.06,80.91,45.33Z"/><path d="M421.36,21.75h-214c-35.29,0-64,30.33-64,67.61V111a16,16,0,0,0,32,0V89.36c0-19.63,14.35-35.61,32-35.61h214c17.64,0,32,16,32,35.61V335.64h-83c-26.47,0-48,22.61-48,50.4v83h-115c-17.65,0-32-16-32-35.61V411a16,16,0,0,0-32,0v22.39c0,37.28,28.71,67.61,64,67.61H332.14a47.15,47.15,0,0,0,33.93-14.75L471,387.61c.26-.24.51-.5.75-.76a51.53,51.53,0,0,0,13.66-35.21V89.36C485.36,52.08,456.65,21.75,421.36,21.75Zm-67,431.61V386c0-10.15,7.18-18.4,16-18.4h75.15Z"/></svg>