<svg id="Layer_1" data-name="Layer 1" xmlns="http://www.w3.org/2000/svg" viewBox="0 0 512 512"><title>IconsSatellite_Imagery_512</title><path d="M130.89,155.47A15.87,15.87,0,1,0,153.33,133L119.67,99.38a15.86,15.86,0,0,0-22.43,22.44Z"/><path d="M377.66,357.37a15.86,15.86,0,0,0-22.43,22.43l33.65,33.65A15.86,15.86,0,1,0,411.31,391Z"/><path d="M254.28,113.65a15.87,15.87,0,0,0,15.86-15.87V50.2a15.87,15.87,0,1,0-31.73,0V97.78A15.88,15.88,0,0,0,254.28,113.65Z"/><path d="M254.28,399.19a15.87,15.87,0,0,0-15.87,15.86v47.59a15.87,15.87,0,0,0,31.73,0V415.05A15.86,15.86,0,0,0,254.28,399.19Z"/><path d="M460.5,240.55H412.91a15.87,15.87,0,0,0,0,31.73H460.5a15.87,15.87,0,0,0,0-31.73Z"/><path d="M48.06,272.28H95.64a15.87,15.87,0,1,0,0-31.73H48.06a15.87,15.87,0,1,0,0,31.73Z"/><path d="M349.34,236.51a15.86,15.86,0,0,0,22.44,0L474.13,134.16a15.87,15.87,0,0,0,0-22.43l-35.3-35.3a15.71,15.71,0,0,0-2.05-2.52,16.19,16.19,0,0,0-2.51-2L398.69,36.29a15.85,15.85,0,0,0-22.43,0L273.91,138.64a15.86,15.86,0,0,0,0,22.44l26.64,26.63-9.73,9.73a69.4,69.4,0,0,0-95.71,95.27q-.6.5-1.17,1.05l-9.81,9.82-26.37-26.37a15.87,15.87,0,0,0-22.43,0L33,379.57A15.85,15.85,0,0,0,33,402l37.85,37.86h0l37.58,37.58a15.87,15.87,0,0,0,22.43,0L182,426.26h0l51.17-51.18a15.85,15.85,0,0,0,0-22.43L206.56,326l9.82-9.81c.33-.34.64-.69.93-1a69.41,69.41,0,0,0,96-95.31l9.71-9.7Zm11.22-33.65-15.15-15.15L374.16,159l15.14,15.15Zm51.17-51.18-15.14-15.14,28.74-28.74,15.15,15.14ZM387.48,69.94,402.9,85.36l-28.74,28.75L358.73,98.68ZM336.3,121.11l15.42,15.43L323,165.28l-15.42-15.42ZM146.55,310.87,162,326.29,133.23,355l-15.42-15.42ZM95.37,362l15.43,15.42L82.05,406.21,66.63,390.78Zm24.26,81.75-15.14-15.15,28.74-28.74L148.37,415Zm51.18-51.18-15.15-15.15,28.74-28.74,15.15,15.15ZM280.92,283.06a37.69,37.69,0,1,1,11-26.64A37.46,37.46,0,0,1,280.92,283.06Z"/></svg>