<svg id="Layer_1" data-name="Layer 1" xmlns="http://www.w3.org/2000/svg" viewBox="0 0 512 512"><title>IconsSecondary Data Review_512</title><path d="M303.56,120.87a16,16,0,0,0,22.62,22.63L370.1,99.58a16,16,0,0,0,0-22.63L326.18,33a16,16,0,1,0-22.62,22.63l13.67,13.67h-202a52.87,52.87,0,0,0-52.81,52.81V410.45a16,16,0,0,0,32,0V122.14a20.83,20.83,0,0,1,20.81-20.81H323.1Z"/><path d="M415.16,72.27a16,16,0,0,0-16,16V376.58a20.84,20.84,0,0,1-20.81,20.81H170.5L190,377.84a16,16,0,1,0-22.63-22.62l-43.92,43.92a16,16,0,0,0,0,22.62l43.92,43.92A16,16,0,1,0,190,443.06l-13.67-13.67h202a52.87,52.87,0,0,0,52.81-52.81V88.27A16,16,0,0,0,415.16,72.27Z"/><path d="M340.67,169.87h-187a16,16,0,1,0,0,32h187a16,16,0,0,0,0-32Z"/><path d="M340.67,233.87h-187a16,16,0,1,0,0,32h187a16,16,0,0,0,0-32Z"/><path d="M340.67,297.87h-187a16,16,0,1,0,0,32h187a16,16,0,0,0,0-32Z"/></svg>