<?xml version="1.0" encoding="UTF-8"?>
<svg width="1961px" height="391px" viewBox="0 0 1961 391" version="1.1" xmlns="http://www.w3.org/2000/svg" xmlns:xlink="http://www.w3.org/1999/xlink">
    <!-- Generator: Sketch 51.3 (57544) - http://www.bohemiancoding.com/sketch -->
    <title>quality</title>
    <desc>Created with Sketch.</desc>
    <defs></defs>
    <g id="quality" stroke="none" stroke-width="1" fill="none" fill-rule="evenodd">
        <text id="Quality" font-family="SourceSansPro-Bold, Source Sans Pro" font-size="27" font-weight="bold" fill="#4A4A4A">
            <tspan x="0" y="21">Quality</tspan>
        </text>
        <path d="M2.5,47.5 L2.5,373.5 L322.5,373.5 L322.5,47.5 L2.5,47.5 Z M2.5,47.5 L2.5,373.5 L322.5,373.5 L322.5,47.5 L2.5,47.5 Z M2.5,47.5 L2.5,373.5 L322.5,373.5 L322.5,47.5 L2.5,47.5 Z" id="Rectangle-11" stroke="#979797" fill="#D8D8D8"></path>
        <path d="M2.5,47.5 L2.5,373.5 L322.5,373.5 L322.5,47.5 L2.5,47.5 Z M2.5,47.5 L2.5,373.5 L322.5,373.5 L322.5,47.5 L2.5,47.5 Z M2.5,47.5 L2.5,373.5 L322.5,373.5 L322.5,47.5 L2.5,47.5 Z" id="Rectangle-11" stroke="#979797" fill="#D8D8D8"></path>
        <path d="M2,47 L323,47 L323,391 L2,391 L2,47 Z M2,47 L323,47 L323,391 L2,391 L2,47 Z M2,47 L323,47 L323,391 L2,391 L2,47 Z" id="Rectangle-11" fill="#F6F6F6"></path>
        <g id="quality1" transform="translate(11.000000, 76.000000)" fill="#FFFFFF">
            <rect id="Rectangle" x="0" y="0" width="303" height="303"></rect>
        </g>
        <text id="FIT-FOR-PURPOSE" font-family="SourceSansPro-Bold, Source Sans Pro" font-size="18" font-weight="bold" fill="#4A4A4A">
            <tspan x="11" y="67">FIT FOR PURPOSE</tspan>
        </text>
        <text id="quality1val" font-family="SourceSansPro-Bold, Source Sans Pro" font-size="28" font-weight="bold" fill="#4A4A4A">
            <tspan x="289.432" y="71">18</tspan>
        </text>
        <text id="/-25" font-family="SourceSansPro-Regular, Source Sans Pro" font-size="11" font-weight="normal" fill="#8D8D8D">
            <tspan x="290" y="88">/ 25</tspan>
        </text>
        <g id="Group-3" transform="translate(329.000000, 43.000000)">
            <path d="M0.5,4.61568469 L0.5,330.505717 L320.5,330.505717 L320.5,4.61568469 L0.5,4.61568469 Z M0.5,4.61568469 L0.5,330.505717 L320.5,330.505717 L320.5,4.61568469 L0.5,4.61568469 Z M0.5,4.61568469 L0.5,330.505717 L320.5,330.505717 L320.5,4.61568469 L0.5,4.61568469 Z" id="Rectangle-11" stroke="#979797" fill="#D8D8D8"></path>
            <path d="M0.5,4.61568469 L0.5,330.505717 L320.5,330.505717 L320.5,4.61568469 L0.5,4.61568469 Z M0.5,4.61568469 L0.5,330.505717 L320.5,330.505717 L320.5,4.61568469 L0.5,4.61568469 Z M0.5,4.61568469 L0.5,330.505717 L320.5,330.505717 L320.5,4.61568469 L0.5,4.61568469 Z" id="Rectangle-11" stroke="#979797" fill="#D8D8D8"></path>
            <path d="M0,4.11568469 L321,4.11568469 L321,348 L0,348 L0,4.11568469 Z M0,4.11568469 L321,4.11568469 L321,348 L0,348 L0,4.11568469 Z M0,4.11568469 L321,4.11568469 L321,348 L0,348 L0,4.11568469 Z" id="Rectangle-11" fill="#F6F6F6"></path>
            <g id="quality2" transform="translate(9.000000, 33.000000)" fill="#FFFFFF">
                <rect id="Rectangle" x="0" y="0" width="303" height="303"></rect>
            </g>
            <text id="TRUSTWORTHINESS" font-family="SourceSansPro-Bold, Source Sans Pro" font-size="18" font-weight="bold" fill="#4A4A4A">
                <tspan x="8.83486239" y="24.1101359">TRUSTWORTHINESS</tspan>
            </text>
            <text id="quality2val" font-family="SourceSansPro-Bold, Source Sans Pro" font-size="28" font-weight="bold" fill="#4A4A4A">
                <tspan x="287.432" y="28.1121974">17</tspan>
            </text>
            <text id="/-25" font-family="SourceSansPro-Regular, Source Sans Pro" font-size="11" font-weight="normal" fill="#8D8D8D">
                <tspan x="287.623853" y="47.1025693">/ 25</tspan>
            </text>
        </g>
        <g id="Group-3" transform="translate(657.000000, 43.000000)">
            <path d="M0.5,4.61568469 L0.5,330.505717 L320.5,330.505717 L320.5,4.61568469 L0.5,4.61568469 Z M0.5,4.61568469 L0.5,330.505717 L320.5,330.505717 L320.5,4.61568469 L0.5,4.61568469 Z M0.5,4.61568469 L0.5,330.505717 L320.5,330.505717 L320.5,4.61568469 L0.5,4.61568469 Z" id="Rectangle-11" stroke="#979797" fill="#D8D8D8"></path>
            <path d="M0.5,4.61568469 L0.5,330.505717 L320.5,330.505717 L320.5,4.61568469 L0.5,4.61568469 Z M0.5,4.61568469 L0.5,330.505717 L320.5,330.505717 L320.5,4.61568469 L0.5,4.61568469 Z M0.5,4.61568469 L0.5,330.505717 L320.5,330.505717 L320.5,4.61568469 L0.5,4.61568469 Z" id="Rectangle-11" stroke="#979797" fill="#D8D8D8"></path>
            <path d="M0,4.11568469 L321,4.11568469 L321,348 L0,348 L0,4.11568469 Z M0,4.11568469 L321,4.11568469 L321,348 L0,348 L0,4.11568469 Z M0,4.11568469 L321,4.11568469 L321,348 L0,348 L0,4.11568469 Z" id="Rectangle-11" fill="#F6F6F6"></path>
            <g id="quality3" transform="translate(9.000000, 34.000000)" fill="#FFFFFF">
                <rect id="Rectangle" x="0" y="0" width="303" height="303"></rect>
            </g>
            <text id="ANALYTICAL-RIGOR" font-family="SourceSansPro-Bold, Source Sans Pro" font-size="18" font-weight="bold" fill="#4A4A4A">
                <tspan x="8.83486239" y="24.1101359">ANALYTICAL RIGOR</tspan>
            </text>
            <text id="quality3val" font-family="SourceSansPro-Bold, Source Sans Pro" font-size="28" font-weight="bold" fill="#4A4A4A">
                <tspan x="285.172156" y="28.1121974">20</tspan>
            </text>
            <text id="/-25" font-family="SourceSansPro-Regular, Source Sans Pro" font-size="11" font-weight="normal" fill="#8D8D8D">
                <tspan x="287.623853" y="47.1025693">/ 25</tspan>
            </text>
        </g>
        <g id="Group-3" transform="translate(983.000000, 43.000000)">
            <path d="M0.5,4.61568469 L0.5,330.505717 L320.5,330.505717 L320.5,4.61568469 L0.5,4.61568469 Z M0.5,4.61568469 L0.5,330.505717 L320.5,330.505717 L320.5,4.61568469 L0.5,4.61568469 Z M0.5,4.61568469 L0.5,330.505717 L320.5,330.505717 L320.5,4.61568469 L0.5,4.61568469 Z" id="Rectangle-11" stroke="#979797" fill="#D8D8D8"></path>
            <path d="M0.5,4.61568469 L0.5,330.505717 L320.5,330.505717 L320.5,4.61568469 L0.5,4.61568469 Z M0.5,4.61568469 L0.5,330.505717 L320.5,330.505717 L320.5,4.61568469 L0.5,4.61568469 Z M0.5,4.61568469 L0.5,330.505717 L320.5,330.505717 L320.5,4.61568469 L0.5,4.61568469 Z" id="Rectangle-11" stroke="#979797" fill="#D8D8D8"></path>
            <path d="M0,4.11568469 L321,4.11568469 L321,348 L0,348 L0,4.11568469 Z M0,4.11568469 L321,4.11568469 L321,348 L0,348 L0,4.11568469 Z M0,4.11568469 L321,4.11568469 L321,348 L0,348 L0,4.11568469 Z" id="Rectangle-11" fill="#F6F6F6"></path>
            <g id="quality4" transform="translate(10.000000, 34.000000)" fill="#FFFFFF">
                <rect id="Rectangle" x="0" y="0" width="303" height="303"></rect>
            </g>
            <text id="ANALYTICAL-WRITING" font-family="SourceSansPro-Bold, Source Sans Pro" font-size="18" font-weight="bold" fill="#4A4A4A">
                <tspan x="8.83486239" y="24.1101359">ANALYTICAL WRITING</tspan>
            </text>
            <text id="quality4val" font-family="SourceSansPro-Bold, Source Sans Pro" font-size="28" font-weight="bold" fill="#4A4A4A">
                <tspan x="281.172156" y="28.1121974">15</tspan>
            </text>
            <text id="/-25" font-family="SourceSansPro-Regular, Source Sans Pro" font-size="11" font-weight="normal" fill="#8D8D8D">
                <tspan x="287.623853" y="47.1025693">/ 25</tspan>
            </text>
        </g>
        <g id="Group-3" transform="translate(1310.000000, 43.000000)">
            <path d="M0.5,4.61568469 L0.5,330.505717 L320.5,330.505717 L320.5,4.61568469 L0.5,4.61568469 Z M0.5,4.61568469 L0.5,330.505717 L320.5,330.505717 L320.5,4.61568469 L0.5,4.61568469 Z M0.5,4.61568469 L0.5,330.505717 L320.5,330.505717 L320.5,4.61568469 L0.5,4.61568469 Z" id="Rectangle-11" stroke="#979797" fill="#D8D8D8"></path>
            <path d="M0.5,4.61568469 L0.5,330.505717 L320.5,330.505717 L320.5,4.61568469 L0.5,4.61568469 Z M0.5,4.61568469 L0.5,330.505717 L320.5,330.505717 L320.5,4.61568469 L0.5,4.61568469 Z M0.5,4.61568469 L0.5,330.505717 L320.5,330.505717 L320.5,4.61568469 L0.5,4.61568469 Z" id="Rectangle-11" stroke="#979797" fill="#D8D8D8"></path>
            <path d="M0,4.11568469 L321,4.11568469 L321,348 L0,348 L0,4.11568469 Z M0,4.11568469 L321,4.11568469 L321,348 L0,348 L0,4.11568469 Z M0,4.11568469 L321,4.11568469 L321,348 L0,348 L0,4.11568469 Z" id="Rectangle-11" fill="#F6F6F6"></path>
            <g id="quality5" transform="translate(9.000000, 34.000000)" fill="#FFFFFF">
                <rect id="Rectangle" x="0" y="0" width="303" height="303"></rect>
            </g>
            <text id="ANALYTICAL-DENSITY" font-family="SourceSansPro-Bold, Source Sans Pro" font-size="18" font-weight="bold" fill="#4A4A4A">
                <tspan x="8.83486239" y="24.1101359">ANALYTICAL DENSITY</tspan>
            </text>
            <text id="quality5val" font-family="SourceSansPro-Bold, Source Sans Pro" font-size="28" font-weight="bold" fill="#4A4A4A">
                <tspan x="285.172156" y="28.1121974">00</tspan>
            </text>
            <text id="/-25" font-family="SourceSansPro-Regular, Source Sans Pro" font-size="11" font-weight="normal" fill="#8D8D8D">
                <tspan x="287.623853" y="47.1025693">/ 25</tspan>
            </text>
        </g>
        <g id="Group-3" transform="translate(1637.000000, 43.000000)">
            <path d="M0.5,4.61568469 L0.5,330.505717 L320.5,330.505717 L320.5,4.61568469 L0.5,4.61568469 Z M0.5,4.61568469 L0.5,330.505717 L320.5,330.505717 L320.5,4.61568469 L0.5,4.61568469 Z M0.5,4.61568469 L0.5,330.505717 L320.5,330.505717 L320.5,4.61568469 L0.5,4.61568469 Z" id="Rectangle-11" stroke="#979797" fill="#D8D8D8"></path>
            <path d="M0.5,4.61568469 L0.5,330.505717 L320.5,330.505717 L320.5,4.61568469 L0.5,4.61568469 Z M0.5,4.61568469 L0.5,330.505717 L320.5,330.505717 L320.5,4.61568469 L0.5,4.61568469 Z M0.5,4.61568469 L0.5,330.505717 L320.5,330.505717 L320.5,4.61568469 L0.5,4.61568469 Z" id="Rectangle-11" stroke="#979797" fill="#D8D8D8"></path>
            <path d="M0,4.11568469 L321,4.11568469 L321,348 L0,348 L0,4.11568469 Z M0,4.11568469 L321,4.11568469 L321,348 L0,348 L0,4.11568469 Z M0,4.11568469 L321,4.11568469 L321,348 L0,348 L0,4.11568469 Z" id="Rectangle-11" fill="#5B5B5B"></path>
            <g id="quality6" transform="translate(9.000000, 34.000000)" fill="#FFFFFF">
                <rect id="Rectangle" x="0" y="0" width="303" height="303"></rect>
            </g>
            <text id="FINAL-SCORE" font-family="SourceSansPro-Bold, Source Sans Pro" font-size="18" font-weight="bold" fill="#FFFFFF">
                <tspan x="8.83486239" y="25.1101359">FINAL SCORE</tspan>
            </text>
            <text id="quality6val" font-family="SourceSansPro-Bold, Source Sans Pro" font-size="28" font-weight="bold" fill="#FFFFFF">
                <tspan x="280.147311" y="28.1109766">00</tspan>
            </text>
            <text id="/-10" font-family="SourceSansPro-Regular, Source Sans Pro" font-size="11" font-weight="normal" fill="#8D8D8D">
                <tspan x="287.623853" y="47.1025693">/ 10</tspan>
            </text>
        </g>
    </g>
</svg>